<?xml version="1.0" encoding="UTF-8"?>
<svg xmlns="http://www.w3.org/2000/svg" viewBox="0 0 260 250.38">
  <defs>
    <style>
      .cls-1 { fill: #675cf5; }
      .cls-2 { fill: #1e1e1e; }
    </style>
  </defs>
  <g id="logo_mark">
    <path class="cls-2" d="M0,58.49V240.93c0,5.22,3.85,9.44,8.6,9.44h125.92c7.1,0,11.14-8.93,6.85-15.15L15.45,52.79C10.47,45.57,0,49.44,0,58.49Z"/>
    <path class="cls-1" d="M72.32,97.06s0-66.38,0-90.33c0-2.74-3.3-6.73-5.79-6.73-16.53,0-61.88,0-61.88,0C.91,0-1.36,7.48,.9,10.74L61.67,100.05c2.61,3.79,10.65,1.76,10.65-2.99Z"/>
    <path class="cls-2" d="M251.1,146.69l-9.69,14.04-51.9,75.15-7.39,10.73c-1.25,1.8-2.84,2.93-4.53,3.42-.9,.19-1.84,.29-2.79,.33-2.51,.1-5.09-.11-7.35-1.02s-4.22-2.54-5.59-4.54l-56.96-83.23-1.73-2.55c-.64-.92-1.06-1.91-1.3-2.9-.09-.35-.14-.71-.17-1.08-.03-.4-.03-.81,0-1.23,0-.07,.02-.12,.02-.19,.02-.14,.02-.28,.05-.42,.26-2.24,1.51-4.02,1.51-4.02l14.56-21.1c1.87-2.72,4.96-4.35,8.27-4.35h112.93c11.79,0,18.76,13.25,12.05,22.96Z"/>
  </g>
</svg>
